PathFileType	4	(X/Y/Z)	/Users/niels/Desktop/University/Third Semester/Perception and Action/Exam/Gymnastics Motion Tracking/Code for Gym Tracking/Analyzed Data/Webcam_Backflip/id1_1_trajectory_Sports2D/id1_1_trajectory_Sports2D_px_person00.trc
DataRate	CameraRate	NumFrames	NumMarkers	Units	OrigDataRate	OrigDataStartFrame	OrigNumFrames
29.874476987447697	29.874476987447697	8	22	m	29.874476987447697	59	239
Frame#	Time	Hip			RHip			RKnee			RAnkle			RBigToe			RSmallToe			RHeel			LHip			LKnee			LAnkle			LBigToe			LSmallToe			LHeel			Neck			Head			Nose			RShoulder			RElbow			RWrist			LShoulder			LElbow			LWrist		
		X1	Y1	Z1	X2	Y2	Z2	X3	Y3	Z3	X4	Y4	Z4	X5	Y5	Z5	X6	Y6	Z6	X7	Y7	Z7	X8	Y8	Z8	X9	Y9	Z9	X10	Y10	Z10	X11	Y11	Z11	X12	Y12	Z12	X13	Y13	Z13	X14	Y14	Z14	X15	Y15	Z15	X16	Y16	Z16	X17	Y17	Z17	X18	Y18	Z18	X19	Y19	Z19	X20	Y20	Z20	X21	Y21	Z21	X22	Y22	Z22
59	1.9749299719887954	0.9418386814042409	-0.518342979048109	0.0	0.9442087192171658	-0.5196914605843014	0.0	1.0037240163307708	-0.6027658864794518	0.0	0.9652192514019531	-0.717198341885523	0.0	0.977456059934391	-0.7558568674394864	0.0	0.9706943010308499	-0.7561003151137085	0.0	0.9521623326508915	-0.7317336363356035	0.0	0.9376744070117834	-0.5154327964775459	0.0	0.994711027557789	-0.5977785152183526	0.0	0.9635787213481907	-0.7136442352672911	0.0	0.9812248265158177	-0.7529363408882921	0.0	0.9756026330995168	-0.751102096630831	0.0	0.9479561206069248	-0.7235708068762826	0.0	0.8839029106895143	-0.3818286893632882	0.0	0.8312633871612684	-0.3103978405429827	0.0	0.8756195675528963	-0.32536948834237445	0.0	0.8884064977745016	-0.38104864398480576	0.0	0.903465489770353	-0.3096919053258451	0.0	0.8996690488405298	-0.24539439181710182	0.0	0.8839866101243095	-0.3757547055520941	0.0	0.9057879341775484	-0.30712760708472686	0.0	0.9011271196006148	-0.24417118550596856	0.0
60	2.008403361344538	0.9412214974819756	-0.48386516363130494	0.0	0.9434849736959389	-0.48613024481060424	0.0	1.0212322783710188	-0.5433063337099066	0.0	0.9846901957996739	-0.657382511446538	0.0	0.9967150080845236	-0.696213046500182	0.0	0.9910270532645299	-0.6960827288654651	0.0	0.9719260862170326	-0.6710510101180831	0.0	0.9374213216060222	-0.4803135629950791	0.0	1.0114664013486323	-0.537076909082217	0.0	0.9824270497475981	-0.6527844908442412	0.0	0.9985511298117844	-0.6924297695433713	0.0	0.9933463035155835	-0.6912011960581647	0.0	0.9669469358578567	-0.6629753673931511	0.0	0.8697100508362391	-0.351556491597084	0.0	0.8114044480135199	-0.28592940587354976	0.0	0.857373260300568	-0.29479576659540396	0.0	0.8764370096409847	-0.3524521039603274	0.0	0.8954746138283245	-0.28774047375710443	0.0	0.8948844571962571	-0.22457504715067994	0.0	0.8720201682446205	-0.3463617721294556	0.0	0.896457603778164	-0.2832508083267459	0.0	0.8951223558824892	-0.2241638542601875	0.0
61	2.04187675070028	0.9401871376291702	-0.45358094069402916	0.0	0.9427416299778383	-0.4567796870167039	0.0	1.0322006886616708	-0.4796571265332273	0.0	1.005418512343931	-0.5909879068289938	0.0	1.0191625405316684	-0.6258702775371398	0.0	1.0148752408278865	-0.6262963010580777	0.0	0.9942413369730186	-0.6042855488358263	0.0	0.9366993267909769	-0.4488598502707569	0.0	1.022323429521891	-0.4727599047373325	0.0	1.0021733404234254	-0.5849761362034983	0.0	1.0184284085888173	-0.6211452912343086	0.0	1.0142415752467644	-0.6202378884407241	0.0	0.9885021804274431	-0.5960162546082283	0.0	0.8565474749972306	-0.3276121914462916	0.0	0.7939511497762765	-0.2687487020909011	0.0	0.8401691115887222	-0.2716046835183019	0.0	0.8659323339334118	-0.33064336356627394	0.0	0.8952021062514086	-0.2762014678337089	0.0	0.903851065059962	-0.21451566665774047	0.0	0.8610735542175773	-0.3241870042933348	0.0	0.8932419985020175	-0.270040719533456	0.0	0.8991978076788353	-0.21579237217333944	0.0
62	2.075350140056022	0.9404368871021084	-0.42737909018602976	0.0	0.9437981012471109	-0.43128536638822446	0.0	1.0327544444795405	-0.4155264817820992	0.0	1.023820322307129	-0.5208487841132801	0.0	1.0407614418982003	-0.5474572012266167	0.0	1.0379432377600883	-0.5492524081321358	0.0	1.0159264907823244	-0.5343769549640239	0.0	0.9367648619559202	-0.42130154832702127	0.0	1.0233134357587896	-0.4090145061942494	0.0	1.0192082577025674	-0.5136386989610167	0.0	1.0367470367703695	-0.5422832995665102	0.0	1.0344574913694666	-0.5416960871511606	0.0	1.0098192853216752	-0.5260516145290933	0.0	0.8451861351491224	-0.31139487309623215	0.0	0.7791134775005096	-0.2601619591981931	0.0	0.8245682645396413	-0.25746593956283365	0.0	0.8575228297561018	-0.3163097529747528	0.0	0.900849824187606	-0.27372150938408146	0.0	0.9214008525620027	-0.21310995492330256	0.0	0.8517565657948928	-0.31021901043905437	0.0	0.8951902728878609	-0.26639664231048804	0.0	0.910340593387847	-0.2164306833087489	0.0
63	2.1088235294117648	0.9431559138607973	-0.40390821230454604	0.0	0.9476886070116854	-0.4080086813561857	0.0	1.021624797749254	-0.3554472144636756	0.0	1.035874012886717	-0.4502127311946901	0.0	1.055977138717348	-0.4646959637088241	0.0	1.0545789388189792	-0.46839955168484815	0.0	1.0327946841801545	-0.46417715103697715	0.0	0.9382046250473258	-0.3969426083119166	0.0	1.0130625999829643	-0.35030369423965246	0.0	1.02961017604866	-0.44259192751355547	0.0	1.0484555359520997	-0.45997359365599394	0.0	1.0485912499673435	-0.4600935250311909	0.0	1.0271015539477708	-0.4564041684276446	0.0	0.8364487056914337	-0.3034379858670425	0.0	0.7675450356476982	-0.26099154169638183	0.0	0.811572619689557	-0.2532423840698713	0.0	0.8518726483611561	-0.30920704025927376	0.0	0.9097067183435538	-0.2780393795871048	0.0	0.9407568047412752	-0.21782564933541912	0.0	0.8447535967325691	-0.30438768069940353	0.0	0.9005316636127443	-0.2701085576111666	0.0	0.9247654457132901	-0.22248016183562563	0.0
64	2.142296918767507	0.9484737246215971	-0.3813006766028331	0.0	0.9541830564436912	-0.38494874246394206	0.0	1.0000814205879982	-0.3037639828436129	0.0	1.0382266125196093	-0.3825826773286631	0.0	1.059518454409095	-0.3826563929452117	0.0	1.0596116569493779	-0.38830467582603045	0.0	1.0407374473379456	-0.3964332148465433	0.0	0.9409484943604489	-0.374498358959124	0.0	0.9928680030090526	-0.3005076991047067	0.0	1.0303662685236423	-0.37560367416660584	0.0	1.0496548363035403	-0.3791307184420333	0.0	1.0517964644595266	-0.38066303191239975	0.0	1.0366488030191976	-0.389931906977408	0.0	0.8314686247528221	-0.3035898207116004	0.0	0.7607636498476483	-0.2717479761836217	0.0	0.802629304469748	-0.2592759958818479	0.0	0.8497256739491579	-0.3084992276817444	0.0	0.9195044250741699	-0.2860357793046732	0.0	0.9565474873357882	-0.2254321881666204	0.0	0.8408750192224873	-0.3058278877141545	0.0	0.9073159420324917	-0.27813193361753347	0.0	0.9385237180400201	-0.2301032296531338	0.0
65	2.175770308123249	0.9551877593625845	-0.3579950717629918	0.0	0.9617140614117674	-0.36069870459357245	0.0	0.9711243875998392	-0.26360886880115214	0.0	1.0295801441374866	-0.32142547986504705	0.0	1.0488408268871003	-0.3073949987775424	0.0	1.0507461235092401	-0.31441590645523165	0.0	1.0374060505298066	-0.3338740467332926	0.0	0.9443817164562383	-0.35250860614386376	0.0	0.9657508100746092	-0.26220395892495296	0.0	1.020705440781209	-0.3159945806284898	0.0	1.0391312735003144	-0.3051195575339025	0.0	1.042027889957968	-0.3088419329779812	0.0	1.0363623325303102	-0.32907195898957986	0.0	0.8316724746613668	-0.31102959161735755	0.0	0.7610500745331443	-0.2924648670415432	0.0	0.7994277373383408	-0.27539407549282785	0.0	0.8518507104272075	-0.313067044676585	0.0	0.9288316327048668	-0.29436243993723143	0.0	0.9660609707219022	-0.2324821041544061	0.0	0.8412375398192278	-0.31310559997804327	0.0	0.9142254648348157	-0.2871863245476496	0.0	0.9485451488672192	-0.23609705869112155	0.0
66	2.2092436974789917	0.9610798434805652	-0.33359452460723815	0.0	0.9678472390489392	-0.3352479532325768	0.0	0.9385741448950502	-0.23639765079197297	0.0	1.011491876494554	-0.2695276974097051	0.0	1.0256705123820287	-0.24398164169578315	0.0	1.029873982115687	-0.2514629820987689	0.0	1.023430482129522	-0.27903601563003144	0.0	0.947584384883956	-0.3301805848307477	0.0	0.9353808048892817	-0.23633791117146605	0.0	1.0026866412599786	-0.2659954998912348	0.0	1.018568819972708	-0.2421717453557363	0.0	1.0210955991193211	-0.2486933906376839	0.0	1.0265623787390312	-0.2757510349379401	0.0	0.8384275154822893	-0.324226133529696	0.0	0.7709742405780149	-0.32213888482784386	0.0	0.8036466700264863	-0.3005947497937366	0.0	0.858888489310032	-0.3216167652375255	0.0	0.9369175831536486	-0.3003984517147053	0.0	0.9689456553890141	-0.23639512766700155	0.0	0.8471294860380765	-0.3244716797025518	0.0	0.9209257820256433	-0.29455453756095307	0.0	0.9534796558467729	-0.23863237963384812	0.0
